<svg width="32" height="33" viewBox="0 0 32 33" fill="none" xmlns="http://www.w3.org/2000/svg">
<g clip-path="url(#clip0_11049_14753)">
<path d="M16.0828 15.15C19.8522 15.15 22.9078 12.0943 22.9078 8.325C22.9078 4.55566 19.8522 1.5 16.0828 1.5C12.3135 1.5 9.25781 4.55566 9.25781 8.325C9.25781 12.0943 12.3135 15.15 16.0828 15.15Z" fill="#DE0056"/>
<path d="M16.7977 25.8469C16.7977 23.3719 18.8039 21.3656 21.2789 21.3656H27.6258L27.532 20.7469C27.307 19.2188 25.9852 17.8969 24.0727 17.3063L22.3195 16.7625C21.1383 16.3969 19.9102 16.2188 18.682 16.2188H14.332C13.0945 16.2188 11.8664 16.4063 10.6945 16.7625L8.94142 17.3063C7.02892 17.8969 5.70705 19.2094 5.48205 20.7469L4.0008 30.9094C3.95392 31.2188 4.2633 31.4812 4.66642 31.4812H16.7977V25.8469Z" fill="#DE0056"/>
<path d="M27.2602 25.8477H18.5508V28.4445H27.2602V25.8477Z" fill="#DE0056"/>
<path d="M24.2023 22.791H21.6055V31.5004H24.2023V22.791Z" fill="#DE0056"/>
</g>
<defs>
<clipPath id="clip0_11049_14753">
<rect width="23.625" height="30" fill="white" transform="translate(4 1.5)"/>
</clipPath>
</defs>
</svg>
