<svg width="32" height="33" viewBox="0 0 32 33" fill="none" xmlns="http://www.w3.org/2000/svg">
<path d="M17 15.5C20.866 15.5 24 12.366 24 8.5C24 4.63401 20.866 1.5 17 1.5C13.134 1.5 10 4.63401 10 8.5C10 12.366 13.134 15.5 17 15.5Z" fill="#DE0056"/>
<path d="M18.5386 16.5C19.7281 16.5 20.9177 16.6672 22.0593 17.0108L23.9491 17.5681C25.9062 18.144 27.2588 19.4443 27.489 20.9489L28.9952 30.9334C29.0432 31.2399 28.7266 31.5 28.3141 31.5H10.9119H22.0977H4.68593C4.27342 31.5 3.95685 31.2399 4.00481 30.9334L5.51095 20.9489C5.74119 19.4443 7.09383 18.144 9.05085 17.5681L10.9407 17.0108C12.0823 16.6765 13.2719 16.5 14.4614 16.5H18.5194H18.5386Z" fill="#DE0056"/>
</svg>
