<svg width="32" height="32" viewBox="0 0 32 32" fill="none" xmlns="http://www.w3.org/2000/svg">
<g clip-path="url(#clip0_11213_26162)">
<path d="M19.9997 29.3327V26.666H25.333V13.3327H6.66634V18.666H3.99967V7.99935C3.99967 7.26602 4.26079 6.63824 4.78301 6.11602C5.30523 5.59379 5.93301 5.33268 6.66634 5.33268H7.99967V2.66602H10.6663V5.33268H21.333V2.66602H23.9997V5.33268H25.333C26.0663 5.33268 26.6941 5.59379 27.2163 6.11602C27.7386 6.63824 27.9997 7.26602 27.9997 7.99935V26.666C27.9997 27.3994 27.7386 28.0271 27.2163 28.5494C26.6941 29.0716 26.0663 29.3327 25.333 29.3327H19.9997ZM10.6663 31.9993L8.79967 30.1327L12.233 26.666H1.33301V23.9993H12.233L8.79967 20.5327L10.6663 18.666L17.333 25.3327L10.6663 31.9993ZM6.66634 10.666H25.333V7.99935H6.66634V10.666Z" fill="#DE0056"/>
</g>
<defs>
<clipPath id="clip0_11213_26162">
<rect width="32" height="32" fill="white"/>
</clipPath>
</defs>
</svg>
